<svg width="675" height="58" fill="currentColor" xmlns="http://www.w3.org/2000/svg"><path d="M26.431 27.342 49.95 16.208l3.018 3.018L34.757 39.1l-8.325-8.22-8.221 8.22L0 19.226l3.018-3.018 23.414 11.134Z" fill="#F51B1B"/><path d="M89.56 35V22h3.51v1.352c1.95-1.092 3.77-1.612 5.33-1.612.546 0 1.092.104 1.69.26v3.198a5.522 5.522 0 0 0-1.508-.208c-1.768 0-3.302.52-5.382 1.69V35h-3.64ZM114.655 31.022v3.25c-1.638.624-3.64.988-5.98.988-5.382 0-8.45-2.496-8.45-6.76 0-4.186 2.964-6.76 7.748-6.76 4.81 0 7.722 2.6 7.722 6.604 0 .52-.052.962-.13 1.378h-11.518c.52 1.664 2.054 2.418 5.018 2.418 1.82 0 3.77-.338 5.59-1.118Zm-10.634-4.03h7.852c-.468-1.586-1.768-2.392-3.926-2.392-2.158 0-3.484.806-3.926 2.392ZM129.6 35v-2.47h-.13c-1.04 1.898-2.73 2.73-5.46 2.73-3.9 0-6.76-2.6-6.76-6.5 0-4.16 2.21-7.02 7.15-7.02 1.56 0 3.12.338 5.07 1.04v-5.72h3.64V35h-3.51Zm-.13-7.02v-1.82c-1.3-.676-2.86-1.17-4.42-1.17-2.756 0-4.03 1.144-4.03 3.51 0 2.132.988 3.51 4.108 3.51 2.756 0 4.342-1.482 4.342-4.03ZM154.816 30.97v3.38c-1.43.598-3.51.91-5.59.91-5.07 0-7.93-2.73-7.93-6.76 0-4.03 2.86-6.76 7.93-6.76 2.08 0 4.16.312 5.59.91v3.38c-1.82-.78-3.64-1.04-5.226-1.04-3.12 0-4.524 1.3-4.524 3.51s1.404 3.51 4.524 3.51c1.586 0 3.406-.26 5.226-1.04ZM156.366 28.5c0-4.16 2.99-6.76 7.93-6.76 4.94 0 7.93 2.6 7.93 6.76s-2.99 6.76-7.93 6.76c-4.94 0-7.93-2.6-7.93-6.76Zm3.77 0c0 2.34 1.43 3.51 4.16 3.51 2.73 0 4.16-1.17 4.16-3.51s-1.43-3.51-4.16-3.51c-2.73 0-4.16 1.17-4.16 3.51ZM174.447 35V17.06h3.64V35h-3.64ZM180.935 35V17.06h3.64V35h-3.64ZM188.021 26.108v-3.38c2.444-.676 4.966-.988 6.682-.988 3.9 0 6.11 1.95 6.11 5.46V35h-3.51v-2.6h-.13c-.728 1.872-2.028 2.86-4.94 2.86-3.64 0-5.59-1.56-5.59-4.186s1.872-4.082 5.434-4.316l5.226-.338c-.39-1.066-1.482-1.56-3.484-1.56-1.716 0-3.302.338-5.798 1.248Zm9.256 2.99-4.94.312c-1.378.078-2.054.546-2.054 1.43 0 .91.754 1.378 2.496 1.378 2.782 0 4.394-1.118 4.498-3.12ZM203.276 35V22h3.51v1.352c1.95-1.092 3.77-1.612 5.33-1.612.546 0 1.092.104 1.69.26v3.198a5.522 5.522 0 0 0-1.508-.208c-1.768 0-3.302.52-5.382 1.69V35h-3.64ZM236.84 13h8.96v1.92c2.432-.854 4.629-1.493 6.592-1.92a28.251 28.251 0 0 1 5.888-.64c3.029 0 5.653.427 7.872 1.28 2.219.81 4.032 1.984 5.44 3.52 1.451 1.536 2.517 3.37 3.2 5.504.725 2.09 1.088 4.416 1.088 6.976 0 2.39-.427 4.565-1.28 6.528-.811 1.962-1.963 3.648-3.456 5.056-1.451 1.408-3.2 2.496-5.248 3.264-2.048.768-4.267 1.152-6.656 1.152-3.371 0-6.144-.534-8.32-1.6-2.133-1.067-3.84-2.773-5.12-5.12h-.32v18.24h-8.64V13Zm8.96 14.72c0 3.157.917 5.61 2.752 7.36 1.877 1.706 4.523 2.56 7.936 2.56 1.92 0 3.52-.192 4.8-.576 1.323-.427 2.368-1.003 3.136-1.728a6.727 6.727 0 0 0 1.664-2.752c.341-1.067.512-2.262.512-3.584 0-2.944-.811-5.12-2.432-6.528-1.579-1.408-4.075-2.112-7.488-2.112-1.92 0-3.819.277-5.696.832a26.22 26.22 0 0 0-5.184 2.048v4.48ZM280.038.84h8.959V45h-8.959V.84ZM296.199 14.792a63.626 63.626 0 0 1 8.896-1.856c2.902-.384 5.419-.576 7.552-.576 4.822 0 8.534 1.152 11.137 3.456 2.602 2.304 3.904 5.632 3.904 9.984V45h-8.64v-6.4h-.32c-.896 2.304-2.262 4.053-4.096 5.248-1.792 1.194-4.48 1.792-8.064 1.792-4.523 0-7.958-.896-10.305-2.688-2.304-1.835-3.456-4.373-3.456-7.616 0-3.243 1.131-5.739 3.392-7.488 2.262-1.792 5.59-2.837 9.985-3.136l12.864-.832c-.47-1.323-1.408-2.283-2.816-2.88-1.366-.64-3.286-.96-5.761-.96-1.066 0-2.133.064-3.199.192a24.467 24.467 0 0 0-3.264.512c-1.11.256-2.305.576-3.585.96-1.28.384-2.688.853-4.224 1.408v-8.32Zm10.624 16.448c-3.37.17-5.055 1.344-5.055 3.52 0 1.11.469 1.962 1.408 2.56.981.554 2.559.832 4.735.832 3.456 0 6.123-.662 8-1.984 1.92-1.323 2.944-3.221 3.072-5.696l-12.16.768ZM332.473 13h8.639v2.688c1.664-.64 3.137-1.174 4.417-1.6a47.499 47.499 0 0 1 3.455-1.024 21.42 21.42 0 0 1 2.944-.512 19.449 19.449 0 0 1 2.753-.192c2.048 0 3.904.299 5.568.896 1.706.554 3.157 1.365 4.351 2.432a10.768 10.768 0 0 1 2.753 3.84c.64 1.493.959 3.157.959 4.992V45h-8.959V27.72c0-2.304-.641-4.096-1.921-5.376-1.28-1.323-3.072-1.984-5.376-1.984-1.109 0-2.602.299-4.479.896-1.878.597-3.926 1.472-6.145 2.624V45h-8.959V13ZM373.1 13h8.64v2.688c1.664-.64 3.136-1.174 4.416-1.6a47.512 47.512 0 0 1 3.456-1.024 21.42 21.42 0 0 1 2.944-.512 19.435 19.435 0 0 1 2.752-.192c2.048 0 3.904.299 5.568.896 1.707.554 3.157 1.365 4.352 2.432a10.765 10.765 0 0 1 2.752 3.84c.64 1.493.96 3.157.96 4.992V45h-8.96V27.72c0-2.304-.64-4.096-1.92-5.376-1.28-1.323-3.072-1.984-5.376-1.984-1.109 0-2.603.299-4.48.896-1.877.597-3.925 1.472-6.144 2.624V45h-8.96V13ZM447.967 43.208c-2.048.768-4.288 1.365-6.72 1.792-2.432.426-5.098.64-8 .64-6.656 0-11.797-1.45-15.424-4.352-3.584-2.901-5.375-6.997-5.375-12.288 0-2.56.426-4.864 1.28-6.912.896-2.09 2.176-3.84 3.84-5.248 1.664-1.45 3.669-2.56 6.015-3.328 2.347-.768 4.993-1.152 7.937-1.152 2.943 0 5.589.384 7.936 1.152 2.389.768 4.394 1.856 6.015 3.264a13.894 13.894 0 0 1 3.713 5.12c.896 2.005 1.343 4.245 1.343 6.72 0 .64-.042 1.237-.127 1.792a18.114 18.114 0 0 1-.193 1.6h-28.352c.64 2.048 1.942 3.563 3.904 4.544 1.963.938 4.779 1.408 8.448 1.408 2.262 0 4.545-.214 6.849-.64a31.443 31.443 0 0 0 6.911-2.112v8Zm-6.847-17.92c-1.152-3.925-4.374-5.888-9.664-5.888-5.334 0-8.555 1.963-9.664 5.888h19.328ZM454.355 13h8.64v3.328c2.432-1.365 4.736-2.368 6.912-3.008 2.219-.64 4.288-.96 6.208-.96.683 0 1.365.064 2.048.192.683.085 1.387.235 2.112.448v7.872c-.427-.128-.981-.235-1.664-.32a10.436 10.436 0 0 0-2.048-.192c-2.176 0-4.288.341-6.336 1.024-2.048.64-4.352 1.685-6.912 3.136V45h-8.96V13Z" fill="#0D0C0C"/><path d="M529.537 43.208c-2.048.768-4.287 1.365-6.719 1.792-2.432.426-5.099.64-8 .64-6.656 0-11.798-1.45-15.425-4.352-3.584-2.901-5.376-6.997-5.376-12.288 0-2.56.427-4.864 1.28-6.912.896-2.09 2.176-3.84 3.84-5.248 1.664-1.45 3.67-2.56 6.017-3.328 2.346-.768 4.991-1.152 7.935-1.152s5.59.384 7.937 1.152c2.389.768 4.394 1.856 6.016 3.264a13.89 13.89 0 0 1 3.711 5.12c.896 2.005 1.344 4.245 1.344 6.72 0 .64-.042 1.237-.128 1.792a17.751 17.751 0 0 1-.192 1.6h-28.352c.64 2.048 1.942 3.563 3.904 4.544 1.963.938 4.779 1.408 8.448 1.408 2.262 0 4.544-.214 6.848-.64a31.435 31.435 0 0 0 6.912-2.112v8Zm-6.847-17.92c-1.152-3.925-4.374-5.888-9.664-5.888-5.334 0-8.555 1.963-9.665 5.888h19.329ZM530.515 13h9.664l9.792 22.72h.448L560.211 13h9.536l-13.824 32h-11.584l-13.824-32ZM603.667 43.208c-2.048.768-4.287 1.365-6.719 1.792-2.432.426-5.099.64-8 .64-6.656 0-11.798-1.45-15.425-4.352-3.584-2.901-5.375-6.997-5.375-12.288 0-2.56.426-4.864 1.279-6.912.896-2.09 2.177-3.84 3.841-5.248 1.664-1.45 3.669-2.56 6.016-3.328 2.346-.768 4.991-1.152 7.935-1.152s5.59.384 7.937 1.152c2.389.768 4.394 1.856 6.016 3.264a13.89 13.89 0 0 1 3.711 5.12c.896 2.005 1.344 4.245 1.344 6.72 0 .64-.042 1.237-.128 1.792a17.751 17.751 0 0 1-.192 1.6h-28.352c.64 2.048 1.942 3.563 3.904 4.544 1.963.938 4.779 1.408 8.448 1.408 2.262 0 4.544-.214 6.848-.64a31.435 31.435 0 0 0 6.912-2.112v8Zm-6.847-17.92c-1.152-3.925-4.374-5.888-9.664-5.888-5.334 0-8.555 1.963-9.664 5.888h19.328ZM610.055 13h8.64v2.688c1.664-.64 3.136-1.174 4.416-1.6a47.512 47.512 0 0 1 3.456-1.024 21.42 21.42 0 0 1 2.944-.512 19.435 19.435 0 0 1 2.752-.192c2.048 0 3.904.299 5.568.896 1.707.554 3.157 1.365 4.352 2.432a10.765 10.765 0 0 1 2.752 3.84c.64 1.493.96 3.157.96 4.992V45h-8.96V27.72c0-2.304-.64-4.096-1.92-5.376-1.28-1.323-3.072-1.984-5.376-1.984-1.109 0-2.603.299-4.48.896-1.877.597-3.925 1.472-6.144 2.624V45h-8.96V13ZM653.883 20.68h-5.761V13h5.761V3.72h8.96V13h11.839v7.68h-11.839V32.2c0 2.048.49 3.477 1.472 4.288.981.768 2.517 1.152 4.607 1.152.854 0 1.835-.064 2.945-.192a14.628 14.628 0 0 0 3.136-.704v8c-.427.17-.939.298-1.537.384-.554.128-1.151.213-1.792.256a29.052 29.052 0 0 1-3.711.256c-4.822 0-8.385-1.152-10.689-3.456-2.261-2.304-3.391-5.419-3.391-9.344V20.68Z" fill="#F51B1B"/></svg>