<svg viewBox="0 0 32 32" fill="currentColor" xmlns="http://www.w3.org/2000/svg">
<path fill-rule="evenodd" clip-rule="evenodd" d="M20.5 16C20.5 18.4853 18.4853 20.5 16 20.5C13.5147 20.5 11.5 18.4853 11.5 16C11.5 13.5147 13.5147 11.5 16 11.5C18.4853 11.5 20.5 13.5147 20.5 16ZM18.5 16C18.5 17.3807 17.3807 18.5 16 18.5C14.6193 18.5 13.5 17.3807 13.5 16C13.5 14.6193 14.6193 13.5 16 13.5C17.3807 13.5 18.5 14.6193 18.5 16Z" />
<path fill-rule="evenodd" clip-rule="evenodd" d="M15.8029 8.0042C20.3774 7.88241 24.7662 10.41 28.8481 15.5503C29.0572 15.8133 29.0577 16.1854 28.8481 16.4489C24.8675 21.4612 20.4512 24 16 24C10.8441 24 6.03238 20.5192 3.12964 16.418C2.95841 16.1726 2.95842 15.8267 3.12964 15.5813C3.34239 15.2811 8.42267 8.21856 15.8029 8.0042ZM8.05086 13.3036C6.80913 14.3275 5.87567 15.3556 5.32578 16.0168C8.01939 19.4342 12.0073 22 16 22C19.4168 22 23.0739 20.1692 26.6291 15.9988C22.9829 11.7048 19.3576 9.91114 15.8585 10.0034C12.7934 10.0932 10.0976 11.6159 8.05086 13.3036Z" />
</svg>
