<svg viewBox="0 0 32 32" fill="currentColor" xmlns="http://www.w3.org/2000/svg">
<path fill-rule="evenodd" clip-rule="evenodd" d="M2.57558 9.09114C2.00058 9.38914 1.82858 10.0541 2.18658 10.5941C2.39458 10.9071 3.16458 11.7481 3.86058 12.4221C4.60458 13.1421 5.27258 13.7061 6.12158 14.3321C6.45958 14.5811 6.75758 14.8041 6.78558 14.8291C6.81558 14.8561 6.36658 15.3491 5.68658 16.0341C4.44258 17.2891 4.38058 17.3781 4.42758 17.8651C4.48458 18.4611 5.05558 18.8401 5.66458 18.6861C5.90058 18.6261 6.03158 18.5101 7.26658 17.2761L8.61158 15.9311L9.14058 16.1961C10.7846 17.0201 12.6456 17.6131 14.3216 17.8461L14.9756 17.9361L14.9766 19.8051C14.9776 21.5081 14.9866 21.6931 15.0756 21.8871C15.1956 22.1461 15.3636 22.3081 15.6276 22.4181C16.1556 22.6391 16.7916 22.3241 16.9466 21.7661C16.9796 21.6471 17.0016 20.8331 17.0016 19.7411V17.9141H17.1756C17.2706 17.9141 17.6486 17.8651 18.0156 17.8051C19.8456 17.5071 21.8066 16.8751 23.4206 16.0651L23.8986 15.8251L25.2636 17.1841C26.0146 17.9321 26.7056 18.5821 26.7996 18.6291C26.9956 18.7271 27.3786 18.7401 27.5986 18.6571C27.6806 18.6261 27.8166 18.5361 27.8996 18.4571C28.1986 18.1751 28.2906 17.8371 28.1746 17.4501C28.1066 17.2241 27.9586 17.0541 26.8966 15.9941C26.2356 15.3351 25.6956 14.7811 25.6956 14.7641C25.6956 14.7471 25.9896 14.5081 26.3486 14.2321C27.7246 13.1751 29.7696 10.9041 29.9356 10.2491C30.0926 9.63214 29.7026 9.07014 29.0816 9.01814C28.6286 8.98114 28.3866 9.12814 27.9746 9.69114C26.0486 12.3211 23.4166 14.1871 20.1486 15.2371C17.5186 16.0821 15.5416 16.1841 13.2156 15.5941C10.8596 14.9971 8.62958 13.8321 6.44158 12.0561C5.78658 11.5231 4.21258 9.96814 3.88658 9.53014C3.53158 9.05414 2.99358 8.87414 2.57558 9.09114Z" />
</svg>
