<svg viewBox="0 0 32 32" fill="currentColor" xmlns="http://www.w3.org/2000/svg">
<path fill-rule="evenodd" clip-rule="evenodd" d="M16 27C22.0751 27 27 22.0751 27 16C27 9.92487 22.0751 5 16 5C9.92487 5 5 9.92487 5 16C5 22.0751 9.92487 27 16 27ZM17.2318 12.2956C17.2318 12.5717 17.0079 12.7956 16.7318 12.7956H15.2685C14.9923 12.7956 14.7685 12.5717 14.7685 12.2956V11.2289C14.7685 10.9528 14.9923 10.7289 15.2685 10.7289H16.7318C17.0079 10.7289 17.2318 10.9528 17.2318 11.2289L17.2318 12.2956ZM17.173 20.7713C17.173 21.0474 16.9492 21.2713 16.673 21.2713H15.313C15.0368 21.2713 14.813 21.0474 14.813 20.7713L14.813 15.2005C14.813 14.9243 15.0368 14.7005 15.313 14.7005H16.673C16.9492 14.7005 17.173 14.9243 17.173 15.2005L17.173 20.7713Z" />
</svg>
