<svg width="350" height="150" fill="currentColor" xmlns="http://www.w3.org/2000/svg"><path d="M48.748 74.914 92.122 54l5.565 5.668L64.101 97 48.748 81.56 33.586 97 0 59.668 5.566 54l43.182 20.914Z" fill="#F51B1B"/><path d="M120.852 87.709V63.29h6.473v2.54c3.597-2.051 6.953-3.028 9.83-3.028 1.007 0 2.014.195 3.117.488v6.007c-.623-.195-1.678-.39-2.781-.39-3.261 0-6.09.976-9.926 3.174v15.627h-6.713ZM167.135 80.237v6.104c-3.021 1.172-6.714 1.856-11.029 1.856-9.926 0-15.585-4.688-15.585-12.697 0-7.862 5.467-12.697 14.29-12.697 8.871 0 14.242 4.883 14.242 12.404 0 .977-.096 1.807-.24 2.588H147.57c.959 3.126 3.788 4.542 9.255 4.542 3.357 0 6.953-.635 10.31-2.1Zm-19.613-7.57h14.482c-.863-2.978-3.261-4.492-7.241-4.492-3.98 0-6.425 1.514-7.241 4.493ZM194.698 87.709v-4.64h-.24c-1.918 3.565-5.035 5.128-10.07 5.128-7.193 0-12.468-4.883-12.468-12.209 0-7.813 4.076-13.185 13.187-13.185 2.877 0 5.754.635 9.351 1.953V54.013h6.713v33.696h-6.473Zm-.24-13.186v-3.418c-2.398-1.27-5.275-2.198-8.152-2.198-5.083 0-7.432 2.149-7.432 6.593 0 4.004 1.822 6.593 7.576 6.593 5.083 0 8.008-2.784 8.008-7.57ZM241.203 80.14v6.348c-2.637 1.123-6.473 1.71-10.309 1.71-9.351 0-14.626-5.129-14.626-12.698 0-7.57 5.275-12.697 14.626-12.697 3.836 0 7.672.586 10.309 1.71v6.348c-3.356-1.465-6.713-1.954-9.638-1.954-5.754 0-8.343 2.442-8.343 6.593s2.589 6.593 8.343 6.593c2.925 0 6.282-.489 9.638-1.954ZM244.062 75.5c0-7.814 5.514-12.697 14.625-12.697s14.626 4.883 14.626 12.697c0 7.814-5.515 12.697-14.626 12.697s-14.625-4.883-14.625-12.697Zm6.953 0c0 4.395 2.637 6.593 7.672 6.593s7.672-2.198 7.672-6.593-2.637-6.593-7.672-6.593-7.672 2.198-7.672 6.593ZM277.409 87.709V54.013h6.713v33.696h-6.713ZM289.375 87.709V54.013h6.713v33.696h-6.713ZM302.443 71.007V64.66c4.507-1.27 9.159-1.856 12.324-1.856 7.192 0 11.268 3.663 11.268 10.255v14.65h-6.473v-4.883h-.24c-1.343 3.516-3.74 5.372-9.111 5.372-6.713 0-10.31-2.93-10.31-7.862 0-4.933 3.453-7.667 10.022-8.107l9.639-.635c-.72-2.002-2.734-2.93-6.426-2.93-3.165 0-6.09.635-10.693 2.344Zm17.071 5.616-9.111.586c-2.541.147-3.788 1.026-3.788 2.686 0 1.71 1.39 2.588 4.603 2.588 5.131 0 8.104-2.1 8.296-5.86ZM330.579 87.709V63.29h6.474v2.54c3.596-2.051 6.953-3.028 9.83-3.028 1.007 0 2.014.195 3.117.488v6.007c-.623-.195-1.678-.39-2.781-.39-3.261 0-6.09.976-9.926 3.174v15.627h-6.714Z" fill="#0d0c0c"/></svg>