<svg width="24" height="24" viewBox="0 0 24 24" fill="currentColor" xmlns="http://www.w3.org/2000/svg">
<path d="M7.875 12.75C7.66789 12.75 7.5 12.9179 7.5 13.125V14.25C7.5 14.4571 7.66789 14.625 7.875 14.625H9C9.20711 14.625 9.375 14.4571 9.375 14.25V13.125C9.375 12.9179 9.20711 12.75 9 12.75H7.875Z" />
<path d="M11.0625 13.125C11.0625 12.9179 11.2304 12.75 11.4375 12.75H12.5625C12.7696 12.75 12.9375 12.9179 12.9375 13.125V14.25C12.9375 14.4571 12.7696 14.625 12.5625 14.625H11.4375C11.2304 14.625 11.0625 14.4571 11.0625 14.25V13.125Z" />
<path d="M15 12.75C14.7929 12.75 14.625 12.9179 14.625 13.125V14.25C14.625 14.4571 14.7929 14.625 15 14.625H16.125C16.3321 14.625 16.5 14.4571 16.5 14.25V13.125C16.5 12.9179 16.3321 12.75 16.125 12.75H15Z" />
<path fill-rule="evenodd" clip-rule="evenodd" d="M8.4375 4.5C8.23039 4.5 8.0625 4.66789 8.0625 4.875V6H6C5.17157 6 4.5 6.67157 4.5 7.5V17.25C4.5 18.0784 5.17157 18.75 6 18.75H18C18.8284 18.75 19.5 18.0784 19.5 17.25V7.5C19.5 6.67157 18.8284 6 18 6H15.9375V4.875C15.9375 4.66789 15.7696 4.5 15.5625 4.5H14.4375C14.2304 4.5 14.0625 4.66789 14.0625 4.875V6H9.9375V4.875C9.9375 4.66789 9.76961 4.5 9.5625 4.5H8.4375ZM6.75 11.25C6.33579 11.25 6 11.5858 6 12V16.5C6 16.9142 6.33579 17.25 6.75 17.25H17.25C17.6642 17.25 18 16.9142 18 16.5V12C18 11.5858 17.6642 11.25 17.25 11.25H6.75Z" />
</svg>
