<svg width="24" height="24" viewBox="0 0 24 24" fill="currentColor" xmlns="http://www.w3.org/2000/svg">
<path fill-rule="evenodd" clip-rule="evenodd" d="M21.6362 11.6627C18.5747 7.80749 15.2831 5.91181 11.8522 6.00315C6.31706 6.16392 2.50685 11.4608 2.34729 11.686C2.21888 11.87 2.21886 12.1294 2.34729 12.3135C4.52434 15.3894 8.13315 18 12.0001 18C15.3384 18 18.6507 16.0959 21.6362 12.3367C21.7933 12.139 21.793 11.86 21.6362 11.6627ZM3.99439 12.0126C4.40681 11.5167 5.10691 10.7456 6.03821 9.97769C7.57325 8.71189 9.5951 7.56991 11.894 7.50257C14.5183 7.43336 17.2372 8.77864 19.9719 11.9991C17.3055 15.1269 14.5627 16.5 12.0001 16.5C9.00557 16.5 6.0146 14.5757 3.99439 12.0126Z" />
<path fill-rule="evenodd" clip-rule="evenodd" d="M12.0001 13.875C13.0356 13.875 13.8751 13.0355 13.8751 12C13.8751 10.9645 13.0356 10.125 12.0001 10.125C10.9645 10.125 10.1251 10.9645 10.1251 12C10.1251 13.0355 10.9645 13.875 12.0001 13.875ZM12.0001 15.375C13.864 15.375 15.3751 13.864 15.3751 12C15.3751 10.136 13.864 8.625 12.0001 8.625C10.1361 8.625 8.62506 10.136 8.62506 12C8.62506 13.864 10.1361 15.375 12.0001 15.375Z" />
</svg>
