<svg width="24" height="24" viewBox="0 0 24 24" fill="currentColor" xmlns="http://www.w3.org/2000/svg">
<path fill-rule="evenodd" clip-rule="evenodd" d="M1.93169 6.81835C1.50044 7.04185 1.37144 7.5406 1.63994 7.9456C1.79594 8.18035 2.37344 8.8111 2.89544 9.3166C3.45344 9.8566 3.95444 10.2796 4.59119 10.7491C4.84469 10.9359 5.06819 11.1031 5.08918 11.1219C5.11169 11.1421 4.77494 11.5119 4.26494 12.0256C3.33194 12.9669 3.28544 13.0336 3.32069 13.3989C3.36344 13.8459 3.79169 14.1301 4.24844 14.0146C4.42544 13.9696 4.52368 13.8826 5.44993 12.9571L6.45869 11.9484L6.85544 12.1471C8.08844 12.7651 9.48419 13.2099 10.7412 13.3846L11.2317 13.4521L11.2324 14.8539C11.2332 16.1311 11.2399 16.2699 11.3067 16.4154C11.3967 16.6096 11.5227 16.7311 11.7207 16.8136C12.1167 16.9794 12.5937 16.7431 12.7099 16.3246C12.7347 16.2354 12.7512 15.6249 12.7512 14.8059V13.4356H12.8817C12.9529 13.4356 13.2364 13.3989 13.5117 13.3539C14.8842 13.1304 16.3549 12.6564 17.5654 12.0489L17.9239 11.8689L18.9477 12.8881C19.5109 13.4491 20.0292 13.9366 20.0997 13.9719C20.2467 14.0454 20.5339 14.0551 20.6989 13.9929C20.7604 13.9696 20.8624 13.9021 20.9247 13.8429C21.1489 13.6314 21.2179 13.3779 21.1309 13.0876C21.0799 12.9181 20.9689 12.7906 20.1724 11.9956C19.6767 11.5014 19.2717 11.0859 19.2717 11.0731C19.2717 11.0604 19.4922 10.8811 19.7614 10.6741C20.7934 9.88135 22.3272 8.1781 22.4517 7.68685C22.5694 7.2241 22.2769 6.8026 21.8112 6.7636C21.4714 6.73585 21.2899 6.8461 20.9809 7.26835C19.5364 9.24085 17.5624 10.6404 15.1114 11.4279C13.1389 12.0616 11.6562 12.1381 9.91169 11.6956C8.14469 11.2479 6.47219 10.3741 4.83119 9.0421C4.33994 8.64235 3.15944 7.4761 2.91494 7.1476C2.64869 6.7906 2.24519 6.6556 1.93169 6.81835Z" />
</svg>
